#!OML:ASF H:\IndianDance\Patient Classification 1\Patient 1\Session 1\dancer.ASF
:FULLY-SPECIFIED
:DEGREES
1659
root -8.52368 14.0127 2.81505 722.113 40.7828 369.997
lowerback 10.8628 -6.79039 -10.7627
upperback -3.43504 -10.8628 -2.85159
thorax -8.37679 -4.75231 4.66969
lowerneck -13.1255 -9.85326 -6.43481
upperneck 10.1574 -13.3873 9.11895
head 6.28477 -6.10233 2.58292
rclavicle -3.44891e-014 -2.78299e-015
rhumerus -57.8521 -12.0421 -37.5987
rradius 129.193
rwrist -21.4726
rhand -45.2203 41.899
rfingers 7.12502
rthumb -17.9956 372.712
lclavicle -3.44891e-014 -2.78299e-015
lhumerus 8.07475 -26.9191 27.0363
lradius 87.1565
lwrist 36.3983
lhand -30.5102 43.6904
lfingers 7.12502
lthumb -3.81016 -646.364
rfemur -52.285 -6.4435 35.4228
rtibia 45.0677
rfoot 17.2132 3.60819
rtoes -1.46814
lfemur -13.8404 12.5199 -35.4405
ltibia 54.5746
lfoot -27.0065 -0.448283
ltoes 10.2831
1660
root -8.2276 13.9343 2.9272 722.181 41.1536 370.184
lowerback 10.7988 -6.96222 -10.9537
upperback -3.48308 -11.1012 -2.69689
thorax -8.29361 -4.85872 4.95029
lowerneck -12.7877 -10.2488 -6.58383
upperneck 10.1198 -13.8887 8.94488
head 6.25164 -6.37451 2.50689
rclavicle -6.64935e-014 -2.88238e-014
rhumerus -57.8739 -14.1473 -34.797
rradius 126.701
rwrist -27.0778
rhand -44.9779 37.1498
rfingers 7.12502
rthumb -17.7624 367.941
lclavicle -6.64935e-014 -2.88238e-014
lhumerus 7.86123 -29.2901 26.3677
lradius 90.6563
lwrist 34.2248
lhand -32.5366 41.0193
lfingers 7.12502
lthumb -5.76687 -649.079
rfemur -51.4293 -6.93637 36.5585
rtibia 42.2337
rfoot 18.3614 2.27678
rtoes -2.08188
lfemur -12.2491 12.4634 -36.0712
ltibia 54.3604
lfoot -28.0753 0.00389818
ltoes 10.5048
1661
root -7.92603 13.8578 3.03963 722.287 41.3204 370.423
lowerback 10.6601 -7.09325 -11.1843
upperback -3.54568 -11.2826 -2.56332
thorax -8.18717 -4.93782 5.21047
lowerneck -12.4861 -10.5618 -6.62771
upperneck 10.1332 -14.2954 8.73822
head 6.22322 -6.59683 2.41513
rclavicle 6.86801e-014 3.77691e-015
rhumerus -57.524 -16.0065 -32.1191
rradius 123.877
rwrist -32.9116
rhand -44.5557 31.9416
rfingers 7.12502
rthumb -17.3561 362.697
lclavicle 6.86801e-014 3.77691e-015
lhumerus 7.78017 -31.6506 25.6583
lradius 93.9699
lwrist 31.893
lhand -34.4962 37.7117
lfingers 7.12502
lthumb -7.65849 -652.447
rfemur -50.6106 -7.36557 37.5993
rtibia 39.89
rfoot 19.3172 0.99802
rtoes -2.45623
lfemur -10.6681 12.5293 -36.7449
ltibia 54.1097
lfoot -28.8746 0.323238
ltoes 10.5263
1662
root -7.61926 13.7847 3.15253 722.419 41.2996 370.69
lowerback 10.441 -7.18852 -11.4346
upperback -3.62138 -11.4093 -2.44842
thorax -8.05617 -4.99192 5.44213
lowerneck -12.2186 -10.7995 -6.60524
upperneck 10.198 -14.615 8.5383
head 6.20529 -6.77173 2.32446
rclavicle 2.87492e-014 1.98785e-016
rhumerus -56.782 -17.696 -29.5724
rradius 120.692
rwrist -38.9216
rhand -43.7885 26.4337
rfingers 7.12502
rthumb -16.6176 357.125
lclavicle 2.87492e-014 1.98785e-016
lhumerus 7.86944 -34.0135 24.8588
lradius 97.0811
lwrist 29.4133
lhand -36.3813 33.6655
lfingers 7.12502
lthumb -9.47773 -656.568
rfemur -49.8435 -7.72624 38.5416
rtibia 38.0659
rfoot 20.0735 -0.146149
rtoes -2.73244
lfemur -9.10245 12.7717 -37.4438
ltibia 53.8036
lfoot -29.398 0.528491
ltoes 10.4573
1663
root -7.30771 13.7166 3.26558 722.59 41.1249 370.968
lowerback 10.1408 -7.26011 -11.6931
upperback -3.72335 -11.4957 -2.3411
thorax -7.91323 -5.02688 5.65375
lowerneck -11.9819 -10.9603 -6.53043
upperneck 10.3281 -14.8431 8.34104
head 6.20215 -6.89775 2.23569
rclavicle 4.59565e-014 1.69464e-014
rhumerus -55.6438 -19.2506 -27.1725
rradius 117.12
rwrist -44.9989
rhand -42.6479 20.8486
rfingers 7.12502
rthumb -15.5193 351.451
lclavicle 4.59565e-014 1.69464e-014
lhumerus 8.14884 -36.3806 23.9318
lradius 99.9677
lwrist 26.7232
lhand -38.1334 28.6867
lfingers 7.12502
lthumb -11.1679 -661.631
rfemur -49.1529 -8.03057 39.3754
rtibia 36.7592
rfoot 20.6314 -1.14684
rtoes -2.81437
lfemur -7.55684 13.2042 -38.158
ltibia 53.4046
lfoot -29.65 0.646191
ltoes 10.331
